<svg width="300" height="301" viewBox="0 0 300 301" fill="none" xmlns="http://www.w3.org/2000/svg">
<g opacity="0.7" clip-path="url(#clip0_1270_2341)">
<path d="M228.78 68.0748C226.11 58.1397 219.731 49.8435 210.821 44.7067C192.428 34.1049 168.843 40.4423 158.242 58.8345L135.645 98.0507L96.4384 75.4512C78.055 64.847 54.4603 71.1868 43.8597 89.5791C38.7239 98.489 37.3617 108.865 40.029 118.792C42.6986 128.727 49.078 137.023 57.9882 142.16L97.1949 164.76L74.5955 203.966C69.4596 212.876 68.0974 223.252 70.7673 233.189C73.4369 243.124 79.8163 251.42 88.7265 256.557C97.917 261.854 108.422 262.925 117.944 260.366C127.464 257.808 136.012 251.628 141.308 242.428L163.904 203.212L203.111 225.811C212.304 231.118 222.807 232.18 232.329 229.621C241.849 227.063 250.396 220.883 255.692 211.683C260.828 202.773 262.19 192.397 259.523 182.47C256.853 172.535 250.474 164.239 241.564 159.102L202.357 136.503L224.956 97.2958C230.092 88.3859 231.454 78.0098 228.785 68.0735L228.78 68.0748ZM159.453 201.142L101.212 167.571L140.094 100.116L198.338 133.697L159.453 201.142ZM60.4278 137.925C52.6428 133.445 47.0782 126.195 44.7479 117.523C42.4176 108.85 43.6017 99.7967 48.0902 92.0093C57.3441 75.9551 77.9431 70.4202 93.9966 79.6742L133.203 102.274L99.632 160.515L60.4278 137.925ZM137.069 239.972C127.808 256.038 107.216 261.562 91.1623 252.307C83.3773 247.828 77.8127 240.578 75.4849 231.914C73.1546 223.242 74.3386 214.188 78.8272 206.401L98.7712 171.801L157.013 205.372L137.069 239.972ZM239.116 163.332C246.901 167.811 252.466 175.061 254.796 183.734C257.126 192.406 255.942 201.46 251.454 209.247C242.193 225.313 221.601 230.836 205.547 221.582L166.338 198.974L199.909 140.732L239.116 163.332ZM200.772 129.453L142.531 95.8818L162.475 61.2818C167.105 53.2489 174.569 47.8541 182.873 45.6228C191.186 43.3891 200.348 44.3165 208.381 48.9468C216.166 53.4264 221.731 60.6764 224.059 69.3398C226.389 78.0124 225.205 87.0659 220.716 94.8533L200.772 129.453Z" fill="white"/>
<path d="M130.631 148.125C129.462 147.451 127.969 147.853 127.295 149.022L121.69 158.759C121.016 159.929 121.417 161.422 122.586 162.096C123.171 162.433 123.841 162.5 124.44 162.339C125.039 162.178 125.585 161.784 125.922 161.199L131.528 151.462C132.202 150.293 131.8 148.8 130.631 148.125Z" fill="white"/>
<path d="M142.731 122.254L137.126 131.991C136.452 133.16 136.853 134.653 138.022 135.327C138.607 135.664 139.277 135.731 139.876 135.57C140.475 135.409 141.021 135.016 141.358 134.431L146.963 124.693C147.637 123.524 147.236 122.031 146.067 121.357C144.898 120.683 143.405 121.084 142.731 122.254Z" fill="white"/>
<path d="M146.079 157.038C144.91 156.364 143.417 156.765 142.743 157.934L137.129 167.674C136.455 168.844 136.856 170.337 138.025 171.011C138.61 171.348 139.28 171.415 139.879 171.254C140.478 171.093 141.024 170.699 141.361 170.114L146.976 160.374C147.65 159.205 147.249 157.712 146.079 157.038Z" fill="white"/>
<path d="M153.467 144.221C154.052 144.557 154.722 144.624 155.321 144.463C155.92 144.303 156.467 143.909 156.804 143.324L162.418 133.584C163.092 132.415 162.691 130.922 161.522 130.248C160.352 129.573 158.859 129.975 158.185 131.144L152.571 140.884C151.897 142.053 152.298 143.546 153.467 144.221Z" fill="white"/>
<path d="M158.198 166.835L152.593 176.572C151.919 177.742 152.32 179.235 153.49 179.909C154.074 180.246 154.744 180.313 155.343 180.152C155.943 179.991 156.489 179.597 156.826 179.012L162.431 169.275C163.105 168.106 162.704 166.613 161.535 165.938C160.365 165.264 158.872 165.666 158.198 166.835Z" fill="white"/>
<path d="M168.916 153.133C169.5 153.47 170.17 153.537 170.77 153.376C171.369 153.215 171.915 152.821 172.252 152.237L177.857 142.499C178.531 141.33 178.13 139.837 176.961 139.163C175.791 138.488 174.298 138.89 173.624 140.059L168.019 149.797C167.345 150.966 167.746 152.459 168.916 153.133Z" fill="white"/>
</g>
<defs>
<clipPath id="clip0_1270_2341">
<rect width="244.306" height="244.306" fill="white" transform="translate(0.106628 64.3586) rotate(-15.0401)"/>
</clipPath>
</defs>
</svg>
