<svg width="345" height="478" viewBox="0 0 345 478" fill="none" xmlns="http://www.w3.org/2000/svg">
<g opacity="0.7" clip-path="url(#clip0_1270_2491)">
<path d="M69.9665 68.0005C55.0665 62.8205 39.0465 63.7579 24.851 70.6283C-4.44942 84.8116 -16.7464 120.183 -2.5625 149.482L27.6857 211.945L-34.7729 242.179C-64.0685 256.349 -76.3703 291.735 -62.1864 321.033C-55.3155 335.227 -43.3321 345.9 -28.4445 351.076C-13.5446 356.256 2.47545 355.318 16.6709 348.448L79.1295 318.214L109.363 380.672C116.234 394.867 128.218 405.539 143.119 410.72C158.019 415.9 174.039 414.962 188.235 408.092C202.876 401.005 213.29 388.606 218.255 374.327C223.219 360.048 222.75 343.882 215.65 329.235L185.401 266.771L247.86 236.537C262.515 229.455 272.916 217.051 277.88 202.772C282.844 188.494 282.375 172.327 275.275 157.68C268.404 143.486 256.42 132.813 241.533 127.638C226.633 122.458 210.613 123.395 196.417 130.265L133.959 160.499L103.725 98.0408C96.854 83.8467 84.8706 73.174 69.9689 67.9934L69.9665 68.0005ZM178.939 270.632L86.1575 315.544L34.1401 208.085L126.936 163.177L178.939 270.632ZM13.4037 341.703C1.01165 347.713 -12.9793 348.519 -25.9858 343.998C-38.9923 339.476 -49.4521 330.169 -55.4575 317.764C-67.8376 292.189 -57.0977 261.296 -31.5229 248.917L30.9357 218.683L75.8481 311.464L13.4037 341.703ZM208.881 332.493C221.27 358.087 210.521 388.961 184.946 401.34C172.554 407.35 158.563 408.156 145.571 403.639C132.564 399.117 122.104 389.811 116.099 377.405L89.4175 322.286L182.199 277.373L208.881 332.493ZM199.671 137.016C212.063 131.005 226.054 130.2 239.06 134.721C252.067 139.243 262.527 148.55 268.532 160.955C280.921 186.549 270.172 217.423 244.597 229.802L182.125 260.031L137.212 167.25L199.671 137.016ZM123.653 156.432L30.8714 201.344L4.18987 146.225C-2.00467 133.428 -2.4112 119.312 1.91837 106.858C6.25261 94.3912 15.3278 83.5717 28.1246 77.3772C40.5167 71.3671 54.5076 70.5612 67.5004 75.0781C80.5069 79.5998 90.9667 88.9064 96.9721 101.312L123.653 156.432Z" fill="white"/>
<path d="M86.8618 261.474C84.9991 262.375 84.2207 264.614 85.1223 266.477L92.638 281.98C93.5397 283.842 95.7788 284.621 97.6417 283.719C98.5731 283.268 99.2358 282.476 99.5481 281.578C99.8605 280.68 99.8321 279.647 99.3812 278.716L91.8655 263.213C90.9638 261.35 88.7248 260.572 86.8618 261.474Z" fill="white"/>
<path d="M64.4854 223.826L72.0011 239.328C72.9028 241.191 75.1418 241.97 77.0048 241.068C77.9361 240.617 78.5988 239.825 78.9112 238.927C79.2235 238.028 79.1951 236.996 78.7443 236.064L71.2285 220.562C70.3269 218.699 68.0878 217.921 66.2248 218.822C64.3619 219.724 63.5838 221.963 64.4854 223.826Z" fill="white"/>
<path d="M111.482 249.568C109.619 250.469 108.841 252.708 109.742 254.571L117.253 270.088C118.155 271.95 120.394 272.729 122.257 271.827C123.188 271.376 123.851 270.584 124.163 269.686C124.476 268.787 124.447 267.755 123.996 266.824L116.485 251.307C115.584 249.445 113.345 248.666 111.482 249.568Z" fill="white"/>
<path d="M101.598 229.149C102.529 228.698 103.192 227.906 103.504 227.007C103.816 226.109 103.788 225.076 103.337 224.145L95.8261 208.629C94.9245 206.766 92.6854 205.988 90.8225 206.889C88.9595 207.791 88.1814 210.03 89.0829 211.893L96.5939 227.409C97.4956 229.272 99.7346 230.05 101.598 229.149Z" fill="white"/>
<path d="M134.353 242.646L141.869 258.149C142.77 260.011 145.009 260.79 146.872 259.888C147.804 259.437 148.466 258.645 148.779 257.747C149.091 256.848 149.063 255.816 148.612 254.885L141.096 239.382C140.194 237.519 137.955 236.741 136.092 237.643C134.23 238.544 133.451 240.783 134.353 242.646Z" fill="white"/>
<path d="M126.217 217.243C127.149 216.792 127.812 216 128.124 215.102C128.436 214.203 128.408 213.171 127.957 212.239L120.441 196.737C119.54 194.874 117.301 194.096 115.438 194.997C113.575 195.899 112.796 198.138 113.698 200.001L121.214 215.504C122.115 217.366 124.354 218.144 126.217 217.243Z" fill="white"/>
</g>
<defs>
<clipPath id="clip0_1270_2491">
<rect width="374.615" height="374.615" fill="white" transform="translate(-131.888 354.773) rotate(-70.83)"/>
</clipPath>
</defs>
</svg>
