<svg width="444" height="527" viewBox="0 0 444 527" fill="none" xmlns="http://www.w3.org/2000/svg">
<path d="M437.095 82.142C431.235 60.3334 417.232 42.1222 397.673 30.8463C357.299 7.57416 305.526 21.4855 282.256 61.8586L232.654 147.943L146.59 98.3343C106.236 75.0567 54.4434 88.9735 31.1738 129.347C19.9 148.905 16.9098 171.682 22.7649 193.472C28.6249 215.281 42.6285 233.492 62.1875 244.768L148.251 294.377L98.6425 380.44C87.3686 399.998 84.3785 422.775 90.2391 444.586C96.0991 466.395 110.103 484.606 129.662 495.882C149.836 507.511 172.897 509.861 193.797 504.245C214.696 498.63 233.458 485.063 245.083 464.868L294.686 378.784L380.749 428.393C400.929 440.042 423.984 442.372 444.885 436.756C465.784 431.14 484.546 417.574 496.171 397.379C507.445 377.821 510.435 355.044 504.58 333.253C498.72 311.445 484.716 293.233 465.157 281.958L379.094 232.349L428.702 146.286C439.976 126.727 442.966 103.951 437.106 82.1393L437.095 82.142ZM284.915 374.241L157.068 300.548L242.419 152.477L370.271 226.19L284.915 374.241ZM67.5427 235.472C50.4537 225.638 38.2388 209.724 33.1235 190.686C28.0081 171.649 30.6073 151.775 40.4603 134.681C60.7737 99.4403 105.991 87.2905 141.23 107.604L227.293 157.213L153.6 285.059L67.5427 235.472ZM235.778 459.478C215.45 494.744 170.248 506.868 135.009 486.555C117.92 476.721 105.705 460.807 100.595 441.79C95.4794 422.752 98.0786 402.879 107.932 385.784L151.711 309.833L279.558 383.526L235.778 459.478ZM459.784 291.242C476.873 301.075 489.088 316.99 494.204 336.028C499.319 355.065 496.72 374.938 486.867 392.033C466.539 427.299 421.336 439.423 386.097 419.11L300.028 369.48L373.721 241.634L459.784 291.242ZM375.615 216.875L247.768 143.182L291.547 67.2308C301.712 49.5976 318.095 37.7554 336.323 32.8574C354.571 27.9542 374.685 29.9898 392.318 40.1539C409.407 49.9872 421.622 65.9019 426.731 84.919C431.847 103.956 429.248 123.83 419.395 140.924L375.615 216.875Z" fill="white"/>
<path d="M221.647 257.863C219.081 256.383 215.803 257.264 214.324 259.83L202.02 281.206C200.54 283.772 201.421 287.049 203.988 288.529C205.271 289.269 206.742 289.416 208.057 289.063C209.372 288.709 210.571 287.845 211.311 286.561L223.615 265.186C225.095 262.62 224.214 259.342 221.647 257.863Z" fill="white"/>
<path d="M248.207 201.071L235.903 222.446C234.424 225.012 235.305 228.29 237.871 229.769C239.155 230.509 240.626 230.656 241.941 230.303C243.256 229.95 244.455 229.085 245.195 227.802L257.499 206.427C258.978 203.86 258.098 200.583 255.531 199.103C252.964 197.623 249.687 198.504 248.207 201.071Z" fill="white"/>
<path d="M255.558 277.427C252.991 275.947 249.714 276.828 248.234 279.395L235.91 300.775C234.431 303.342 235.311 306.619 237.878 308.099C239.161 308.839 240.632 308.986 241.947 308.632C243.262 308.279 244.462 307.414 245.201 306.131L257.526 284.751C259.005 282.184 258.125 278.907 255.558 277.427Z" fill="white"/>
<path d="M271.776 249.291C273.059 250.031 274.53 250.178 275.845 249.824C277.16 249.471 278.36 248.606 279.099 247.323L291.423 225.943C292.903 223.376 292.022 220.099 289.456 218.619C286.889 217.139 283.612 218.02 282.132 220.587L269.808 241.967C268.328 244.534 269.209 247.811 271.776 249.291Z" fill="white"/>
<path d="M282.16 298.932L269.856 320.307C268.377 322.874 269.258 326.151 271.824 327.631C273.108 328.371 274.579 328.518 275.894 328.165C277.209 327.811 278.408 326.947 279.148 325.663L291.452 304.288C292.931 301.722 292.051 298.444 289.484 296.964C286.917 295.485 283.64 296.366 282.16 298.932Z" fill="white"/>
<path d="M305.686 268.855C306.97 269.595 308.441 269.742 309.756 269.389C311.071 269.035 312.27 268.171 313.01 266.887L325.314 245.512C326.793 242.946 325.913 239.668 323.346 238.188C320.779 236.709 317.502 237.59 316.022 240.156L303.718 261.531C302.239 264.098 303.12 267.375 305.686 268.855Z" fill="white"/>
</svg>
