<svg width="150" height="300" viewBox="0 0 150 300" fill="none" xmlns="http://www.w3.org/2000/svg">
<g opacity="0.7" clip-path="url(#clip0_1270_2500)">
<path d="M229.006 67.1123C226.337 57.1773 219.957 48.8811 211.047 43.7443C192.655 33.1425 169.069 39.4799 158.469 57.8721L135.872 97.0883L96.665 74.4888C78.2816 63.8846 54.6869 70.2244 44.0863 88.6167C38.9505 97.5266 37.5883 107.903 40.2556 117.83C42.9252 127.765 49.3046 136.061 58.2148 141.198L97.4215 163.797L74.8221 203.004C69.6862 211.914 68.324 222.29 70.9939 232.226C73.6635 242.161 80.0429 250.457 88.9531 255.594C98.1436 260.892 108.649 261.962 118.171 259.404C127.691 256.846 136.238 250.666 141.534 241.466L164.131 202.25L203.338 224.849C212.531 230.156 223.034 231.217 232.555 228.659C242.076 226.101 250.623 219.92 255.919 210.721C261.055 201.811 262.417 191.435 259.749 181.508C257.08 171.573 250.7 163.276 241.79 158.14L202.584 135.54L225.183 96.3334C230.319 87.4235 231.681 77.0473 229.011 67.1111L229.006 67.1123ZM159.68 200.18L101.438 166.609L140.32 99.1537L198.564 132.734L159.68 200.18ZM60.6544 136.963C52.8694 132.483 47.3048 125.233 44.9745 116.56C42.6442 107.888 43.8282 98.8343 48.3168 91.0469C57.5707 74.9927 78.1697 69.4578 94.2232 78.7118L133.43 101.311L99.8586 159.553L60.6544 136.963ZM137.295 239.01C128.035 255.076 107.442 260.599 91.3889 251.345C83.6039 246.865 78.0393 239.615 75.7115 230.952C73.3812 222.279 74.5652 213.226 79.0538 205.438L98.9978 170.839L157.239 204.41L137.295 239.01ZM239.343 162.369C247.128 166.849 252.692 174.099 255.022 182.771C257.353 191.444 256.169 200.498 251.68 208.285C242.42 224.351 221.827 229.874 205.774 220.62L166.565 198.011L200.136 139.77L239.343 162.369ZM200.998 128.491L142.757 94.9194L162.701 60.3194C167.331 52.2865 174.795 46.8917 183.099 44.6604C191.412 42.4267 200.575 43.3541 208.608 47.9844C216.393 52.464 221.957 59.714 224.285 68.3774C226.615 77.05 225.431 86.1035 220.943 93.8909L200.998 128.491Z" fill="white"/>
<path d="M130.858 147.163C129.688 146.489 128.196 146.89 127.521 148.059L121.916 157.797C121.242 158.966 121.643 160.459 122.813 161.133C123.397 161.47 124.068 161.537 124.667 161.376C125.266 161.215 125.812 160.822 126.149 160.237L131.754 150.499C132.428 149.33 132.027 147.837 130.858 147.163Z" fill="white"/>
<path d="M142.957 121.291L137.352 131.029C136.678 132.198 137.079 133.691 138.249 134.365C138.833 134.702 139.503 134.769 140.103 134.608C140.702 134.447 141.248 134.053 141.585 133.469L147.19 123.731C147.864 122.562 147.463 121.069 146.294 120.395C145.124 119.72 143.631 120.122 142.957 121.291Z" fill="white"/>
<path d="M146.306 156.076C145.137 155.402 143.644 155.803 142.97 156.972L137.355 166.712C136.681 167.881 137.082 169.374 138.252 170.048C138.836 170.385 139.506 170.452 140.106 170.291C140.705 170.13 141.251 169.737 141.588 169.152L147.202 159.412C147.876 158.243 147.475 156.75 146.306 156.076Z" fill="white"/>
<path d="M153.694 143.258C154.279 143.595 154.949 143.662 155.548 143.501C156.147 143.34 156.693 142.946 157.03 142.362L162.645 132.622C163.319 131.452 162.917 129.959 161.748 129.285C160.579 128.611 159.086 129.012 158.412 130.182L152.797 139.922C152.124 141.091 152.525 142.584 153.694 143.258Z" fill="white"/>
<path d="M158.425 165.872L152.82 175.61C152.146 176.779 152.547 178.272 153.716 178.946C154.301 179.283 154.971 179.35 155.57 179.189C156.169 179.028 156.715 178.635 157.052 178.05L162.658 168.312C163.332 167.143 162.93 165.65 161.761 164.976C160.592 164.302 159.099 164.703 158.425 165.872Z" fill="white"/>
</g>
<defs>
<clipPath id="clip0_1270_2500">
<rect width="244.306" height="244.306" fill="white" transform="translate(0.333252 63.3962) rotate(-15.0401)"/>
</clipPath>
</defs>
</svg>
