<svg width="1512" height="289" viewBox="0 0 1512 289" fill="none" xmlns="http://www.w3.org/2000/svg">
<path d="M48.8702 188.468L0 196.243V241.145H1529.86V138.967L1448.34 132.696L1376.14 109.378L1339.51 106.027C1337.44 107.543 1331.33 110.718 1323.48 111.293C1315.63 111.867 1279.52 101.958 1262.44 96.9313H1242.34L1161.19 66.5329L1151.14 58.6341L1137.5 54.3257C1133.35 56.7192 1123.85 62.0808 1119.07 64.3787C1114.28 66.6765 1096.81 77.304 1088.67 82.3305C1085.4 82.2507 1078.38 82.4262 1076.46 83.7666C1074.55 85.1071 1055.08 93.7399 1045.58 97.8887L1029.79 105.548L1019.97 111.532C1017.66 111.931 1011.64 112.49 1006.09 111.532C1000.54 110.575 989.733 102.038 985.026 97.8887L968.75 96.2132L948.404 80.655H937.873L916.33 65.5755L911.543 56.2405L896.942 47.6236L890.001 38.2887L875.64 29.6718L856.97 14.8317L839.257 10.7626L827.289 0.709595H813.407L783.966 31.1081L765.056 40.9217L733.94 61.9852H715.988L680.563 39.7248L673.143 45.4693C662.771 54.7245 641.069 74.0008 637.239 77.0646C633.41 80.1285 621.921 85.6815 616.655 88.075L599.182 98.128L591.283 99.6133L580.512 110.575C574.608 115.92 561.602 126.085 556.815 123.979C552.028 121.872 531.044 109.697 521.151 103.873L507.986 86.6388C505.274 84.4846 499.322 79.554 497.215 77.0646C494.582 73.953 479.263 67.4902 480.939 71.32C482.279 74.3837 461.498 91.4588 450.939 99.6133H434.279L412.065 118.495C385.409 134.045 330.096 166.477 322.099 171.808C314.103 177.139 267.676 151.816 245.462 138.487L216.584 132.934L186.596 138.487L165.492 146.262L151.054 158.48H138.836L113.29 171.808L48.8702 188.468Z" fill="#ECE5DC" fill-opacity="0.8"/>
<path d="M19.0356 119.581H0V288.607H1517.44V106.582L1458.01 104.763L1426.62 91.7285H1401.02L1393.7 97.4882L1386.08 100.216L1344.64 134.167L1319.95 154.781L1283.38 168.422L1263.26 171.15C1258.28 173.474 1244.31 177.091 1228.21 172.969C1208.1 167.815 1193.47 168.422 1186.76 168.422C1180.06 168.422 1165.74 161.147 1161.47 161.147C1157.2 161.147 1154.46 159.025 1145.93 159.025C1137.39 159.025 1124.9 170.241 1117.28 174.788C1109.66 179.335 1102.04 193.885 1095.94 195.704C1091.07 197.159 1061.2 196.31 1046.88 195.704L1024.63 187.216L996.893 181.76H979.217L955.445 170.241H908.815C905.564 168.119 898.209 163.45 894.795 161.753C891.382 160.055 873.665 158.62 865.233 158.115L848.775 144.777H839.937L814.946 131.136H807.936L766.182 115.373L717.115 144.777H674.752L668.351 152.356L649.456 165.997L636.351 167.815L630.865 172.362L581.187 193.279H565.644L554.063 198.735L530.422 204.607H515.38L491.352 185.371L480.412 184.011C467.909 176.109 442.279 160.034 439.779 158.946C436.653 157.586 430.988 154.282 421.025 157.003C411.062 159.723 413.406 156.42 402.662 157.003C394.066 157.469 355.321 175.591 337.023 184.594C331.879 184.335 321.161 183.972 319.442 184.594C317.722 185.216 314.948 187.832 313.776 189.063L277.441 187.12L263.18 180.902H240.324L223.719 172.353H196.174L170.388 157.586L108.656 152.922L98.8887 142.43L94.2003 140.875L87.133 132.75L74.3238 124.033H55.1099L19.0356 119.581Z" fill="#F9F2EA"/>
</svg>
