<svg width="390" height="93" viewBox="0 0 390 93" fill="none" xmlns="http://www.w3.org/2000/svg">
<path d="M12.4582 71.4441L0 74.3908V91.4093H390V52.6823L369.218 50.3055L350.812 41.4676L341.476 40.1975C340.947 40.7721 339.389 41.9756 337.388 42.1934C335.386 42.4111 326.181 38.6553 321.828 36.7502H316.702L296.017 25.2287L293.454 22.235L289.976 20.602C288.919 21.5092 286.498 23.5413 285.278 24.4123C284.058 25.2832 279.603 29.3111 277.529 31.2163C276.695 31.186 274.905 31.2525 274.417 31.7606C273.929 32.2686 268.966 35.5406 266.545 37.1131L262.518 40.0161L260.016 42.2841C259.427 42.4353 257.893 42.647 256.477 42.2841C255.062 41.9212 252.308 38.6855 251.108 37.1131L246.958 36.478L241.772 30.5812H239.087L233.596 24.8659L232.375 21.3278L228.653 18.0619L226.883 14.5238L223.222 11.2579L218.463 5.63323L213.948 4.09099L210.897 0.280762H207.358L199.852 11.8022L195.032 15.5217L187.1 23.5051H182.523L173.493 15.0681L171.601 17.2453C168.957 20.7532 163.425 28.0592 162.448 29.2204C161.472 30.3817 158.543 32.4863 157.201 33.3935L152.746 37.2037L150.733 37.7667L147.987 41.9212C146.482 43.9473 143.166 47.7998 141.946 47.0015C140.726 46.2032 135.376 41.5885 132.854 39.381L129.498 32.8492C128.807 32.0327 127.29 30.1639 126.753 29.2204C126.081 28.0411 122.176 25.5916 122.603 27.0431C122.945 28.2043 117.647 34.676 114.956 37.7667H110.709L105.046 44.9231C98.2503 50.8167 84.1498 63.1089 82.1112 65.1295C80.0726 67.1502 68.2372 57.5522 62.5744 52.5005L55.2127 50.3957L47.5679 52.5005L42.1882 55.4473L38.5073 60.078H35.3928L28.8805 65.1295L12.4582 71.4441Z" fill="#ECE5DC" fill-opacity="0.8"/>
<path d="M4.89236 28.9658H0V93.029H390V24.0391L374.726 23.3497L366.658 18.4093H360.078L358.198 20.5923L356.24 21.6263L345.587 34.4943L339.243 42.307L329.843 47.4772L324.673 48.5112C323.394 49.392 319.801 50.7631 315.665 49.2006C310.496 47.2474 306.736 47.4772 305.013 47.4772C303.289 47.4772 299.608 44.7197 298.511 44.7197C297.415 44.7197 296.71 43.9155 294.516 43.9155C292.323 43.9155 289.112 48.1665 287.153 49.8899C285.195 51.6133 283.237 57.1281 281.67 57.8175C280.417 58.369 272.741 58.0473 269.059 57.8175L263.341 54.6005L256.213 52.5324H251.67L245.561 48.1665H233.576C232.741 47.3623 230.85 45.5929 229.973 44.9495C229.096 44.3061 224.542 43.7623 222.375 43.5708L218.145 38.5155H215.874L209.451 33.3454H207.649L196.918 27.3709L184.307 38.5155H173.419L171.774 41.3878L166.918 46.558L163.55 47.2474L162.14 48.9707L149.372 56.8983H145.377L142.401 58.9664L136.325 61.192H132.459L126.283 53.9012L123.472 53.3857C120.258 50.3909 113.671 44.298 113.028 43.8856C112.225 43.3701 110.769 42.1182 108.208 43.1492C105.648 44.1802 106.25 42.9283 103.489 43.1492C101.28 43.3259 91.3218 50.1945 86.619 53.6067C85.2968 53.5085 82.5421 53.371 82.1002 53.6067C81.6584 53.8423 80.9455 54.8341 80.6442 55.3005L71.3056 54.564L67.6404 52.2074H61.7661L57.4984 48.9671H50.4191L43.7916 43.3701L27.926 41.6027L25.4156 37.6259L24.2106 37.0367L22.3942 33.9572L19.1021 30.6533H14.1639L4.89236 28.9658Z" fill="#F9F2EA"/>
</svg>
