<svg width="124" height="81" viewBox="0 0 124 81" fill="none" xmlns="http://www.w3.org/2000/svg">
<path d="M86.2955 0.766357H0.856934V80.4918H86.2955C90.9863 80.4918 95.4071 78.2974 98.2433 74.561L117.116 49.6983C121.185 44.337 121.185 36.9212 117.116 31.5599L98.2433 6.69714C95.4071 2.96079 90.9864 0.766357 86.2955 0.766357Z" fill="#337EBA"/>
<path d="M23.2153 47.0849V43.3409L34.0313 28.7809H38.8633V43.1809H41.8073V47.0849H38.8633V51.6289H34.3193V47.0849H23.2153ZM34.6713 34.0609L27.8233 43.1809H34.6713V34.0609Z" fill="white"/>
<path d="M91.4131 40.6307C91.1295 40.3422 90.8426 40.0619 90.5525 39.7913C88.4565 37.8191 86.2168 36.256 83.8994 35.1039C84.108 35.4836 84.2954 35.8781 84.4617 36.2823C85.0126 37.6286 85.3174 39.1004 85.3174 40.6326C85.3174 42.1648 85.0126 43.6349 84.4617 44.9812C84.2971 45.3854 84.108 45.7783 83.901 46.158C86.2187 45.0057 88.4583 43.4426 90.5541 41.4722C90.8426 41.2 91.1295 40.9197 91.4131 40.6328V40.6307ZM73.8099 37.2063C74.7553 37.2063 75.611 37.5893 76.2304 38.2087C76.8497 38.828 77.2327 39.6838 77.2327 40.6291C77.2327 41.5744 76.8497 42.4301 76.2304 43.0495C75.611 43.6689 74.7553 44.0519 73.8099 44.0519C72.8646 44.0519 72.0089 43.6688 71.3895 43.0495C70.7702 42.4302 70.3872 41.5744 70.3872 40.6291C70.3872 39.6838 70.7702 38.828 71.3895 38.2087C72.0089 37.5893 72.8646 37.2063 73.8099 37.2063ZM75.0503 39.3888C74.7325 39.0709 74.294 38.8737 73.8099 38.8737C73.3258 38.8737 72.8858 39.0709 72.5696 39.3888C72.2517 39.7066 72.0545 40.145 72.0545 40.6291C72.0545 41.1132 72.2517 41.5533 72.5696 41.8711C72.8874 42.189 73.3258 42.3862 73.8099 42.3862C74.294 42.3862 74.7341 42.189 75.0503 41.8711C75.3681 41.5533 75.5654 41.1132 75.5654 40.6291C75.5654 40.145 75.3682 39.705 75.0503 39.3888ZM80.9653 33.8747C78.6166 33.0728 76.2124 32.6719 73.8102 32.6719C71.4061 32.6719 69.0022 33.0744 66.6535 33.8764C65.8255 34.7533 65.1572 35.7785 64.6976 36.9063C64.2314 38.0489 63.9723 39.3072 63.9723 40.6323C63.9723 41.9558 64.2298 43.2141 64.6976 44.355C65.1589 45.4813 65.8255 46.5081 66.6518 47.3834C69.0022 48.1853 71.4077 48.5878 73.8103 48.5878C76.2144 48.5878 78.62 48.1853 80.9687 47.3834C81.7951 46.5065 82.4617 45.4813 82.923 44.355C83.3891 43.2141 83.6483 41.9558 83.6483 40.6323C83.6483 39.3072 83.3907 38.0505 82.923 36.908C82.4617 35.7785 81.7918 34.7532 80.9655 33.8764L80.9653 33.8747ZM63.7177 35.102C61.3999 36.2544 59.1637 37.8175 57.0675 39.7878C56.779 40.06 56.4921 40.3403 56.2069 40.6272C56.4905 40.9157 56.7773 41.1944 57.0658 41.4666C59.1619 43.4388 61.4015 45.0002 63.7173 46.1524C63.5103 45.7726 63.3212 45.3798 63.1566 44.9756C62.6057 43.6293 62.3009 42.1591 62.3009 40.627C62.3009 39.0948 62.6057 37.6247 63.1566 36.275C63.3212 35.8708 63.5103 35.4779 63.7173 35.0982L63.7177 35.102ZM91.6917 38.5754C92.1904 39.0448 92.6843 39.5386 93.1668 40.0521L93.1733 40.0586C93.4732 40.3764 93.4765 40.8768 93.1733 41.1995C92.6892 41.7146 92.1937 42.2101 91.6917 42.6811C86.3246 47.7291 80.0691 50.2535 73.8069 50.2535C67.5447 50.2535 61.2909 47.7287 55.9221 42.6811C55.4234 42.2117 54.9311 41.7178 54.447 41.206L54.4405 41.1995C54.1406 40.8817 54.1373 40.3813 54.4405 40.0586C54.9246 39.5435 55.4201 39.048 55.9221 38.577C61.2892 33.529 67.5435 31.0046 73.8069 31.0046C80.0691 31.0046 86.3229 33.5294 91.69 38.577L91.6917 38.5754Z" fill="white" fill-opacity="0.5"/>
</svg>
