<svg width="124" height="81" viewBox="0 0 124 81" fill="none" xmlns="http://www.w3.org/2000/svg">
<path d="M86.2955 0.766357H0.856934V80.4918H86.2955C90.9863 80.4918 95.4071 78.2974 98.2433 74.561L117.116 49.6983C121.185 44.337 121.185 36.9212 117.116 31.5598L98.2433 6.69714C95.4071 2.96079 90.9864 0.766357 86.2955 0.766357Z" fill="#337EBA"/>
<path d="M23.1513 48.0769C30.3833 43.0636 33.9993 38.9036 33.9993 35.5969C33.9993 34.5942 33.754 33.8049 33.2633 33.2289C32.794 32.6529 32.0473 32.3649 31.0233 32.3649C28.9113 32.3649 27.7913 33.8049 27.6633 36.6849H23.2793C23.4073 34.0182 24.218 32.0022 25.7113 30.6369C27.2047 29.2502 29.0927 28.5569 31.3753 28.5569C33.7007 28.5569 35.482 29.1649 36.7193 30.3809C37.978 31.5756 38.6073 33.1756 38.6073 35.1809C38.6073 36.7596 38.138 38.3489 37.1993 39.9489C36.282 41.5276 35.1087 42.9889 33.6793 44.3329C32.25 45.6556 30.746 46.7969 29.1673 47.7569H39.0553V51.4369H23.1513V48.0769Z" fill="white"/>
<g opacity="0.5">
<path d="M73.6972 37.2699C73.4792 36.7012 73.0433 36.2462 72.4841 36.0022C71.9841 35.7771 71.4178 35.7463 70.8965 35.9098L69.4582 32.1921L68.7118 32.4764L66.1338 25.7729L59.679 28.2562L62.2689 34.976L61.5177 35.2604L62.956 38.9852C61.8684 39.4923 61.359 40.7529 61.7902 41.8736L70.0835 63.3652C70.2944 63.9386 70.7257 64.403 71.2825 64.6542C71.8394 64.9054 72.4744 64.922 73.043 64.6992L80.6916 61.7326C81.8716 61.2777 82.4616 59.9531 82.009 58.7731L73.6972 37.2699ZM78.7751 53.8183V53.8159C77.3629 54.2638 75.8298 54.1169 74.5289 53.4108C71.3941 51.6715 69.9558 47.9349 71.1145 44.5418C71.5979 43.1367 72.6404 41.9898 73.9958 41.3761L78.7751 53.8183ZM69.7733 36.3054L64.0723 38.4948L63.1007 35.9476L68.7591 33.7629L69.7733 36.3054ZM61.281 28.9529L65.4608 27.3392L67.6075 32.9147L63.4278 34.5283L61.281 28.9529ZM80.2679 60.6049L72.6073 63.5478C72.3419 63.6568 72.0457 63.6568 71.7803 63.5478C71.5196 63.427 71.3135 63.209 71.2116 62.9412L62.9183 41.4236C62.7074 40.8715 62.9775 40.2507 63.5249 40.0279L71.1692 37.0873C71.2947 37.04 71.4274 37.0139 71.5625 37.0139C71.7118 37.0139 71.8587 37.0471 71.9937 37.111C72.2591 37.2272 72.4653 37.4451 72.5648 37.7176L73.541 40.2601C71.8564 40.9946 70.5578 42.3997 69.956 44.1366C68.5911 48.1008 70.2782 52.4748 73.9533 54.496C74.9414 55.022 76.0432 55.3016 77.1616 55.3087C77.8606 55.3063 78.5525 55.1902 79.2112 54.9628L80.8556 59.2089C81.0689 59.7657 80.794 60.3889 80.2372 60.6045L80.2679 60.6049Z" fill="white"/>
<path d="M80.6918 18.1622C80.725 18.148 80.7558 18.129 80.7819 18.1077L83.9547 15.269C84.0068 15.2169 84.0352 15.1458 84.0352 15.0747C84.0352 15.0013 84.0068 14.9302 83.9547 14.8804C83.848 14.7762 83.6751 14.7762 83.5661 14.8804L80.3885 17.6954C80.2938 17.7854 80.2748 17.9276 80.3412 18.039C80.4075 18.1503 80.5449 18.2025 80.6681 18.1622L80.6918 18.1622Z" fill="white"/>
<path d="M86.2483 21.9964L83.5968 22.949C83.457 23.0035 83.3835 23.1622 83.4333 23.3068C83.4878 23.4466 83.6442 23.5176 83.7864 23.4703L86.4378 22.513L86.4355 22.5106C86.5066 22.4869 86.5634 22.4372 86.5942 22.3708C86.625 22.3045 86.6274 22.2286 86.599 22.1599C86.5753 22.0912 86.5255 22.0343 86.4592 22.0035C86.3928 21.9727 86.317 21.9704 86.2483 21.9964Z" fill="white"/>
<path d="M68.2494 28.8133H68.3584L82.0255 29.0194C82.0587 29.0265 82.0919 29.0265 82.1227 29.0194C82.234 28.9839 82.3075 28.8796 82.3051 28.7659C82.3075 28.6924 82.2791 28.6213 82.2293 28.5692C82.1795 28.5171 82.1108 28.4863 82.0374 28.4863L71.3128 28.3275L87.3948 25.5362H87.4422V25.5386C87.5678 25.4936 87.6412 25.3656 87.6199 25.2353C87.6081 25.1618 87.5678 25.0978 87.5085 25.0552C87.4493 25.0125 87.3758 24.996 87.3024 25.0102L71.5498 27.8797L82.2434 24.0576C82.3714 23.9937 82.4306 23.8468 82.3832 23.7117C82.3358 23.579 82.1936 23.5032 82.0562 23.5364L70.9859 27.491L85.1862 18.8944C85.3189 18.8162 85.3616 18.6456 85.2834 18.5129C85.2005 18.385 85.0322 18.347 84.9019 18.4229L70.903 26.9152L79.5093 19.2048C79.5614 19.1526 79.5898 19.0839 79.5898 19.0105C79.5898 18.937 79.5614 18.8683 79.5093 18.8162C79.4003 18.7119 79.2297 18.7119 79.1207 18.8162L68.2803 28.5217V28.5596C68.2827 28.569 68.2827 28.5785 68.2803 28.588V28.6306L68.2494 28.8133Z" fill="white"/>
<path d="M88.7765 28.7231L83.4499 28.6378H83.4522C83.3788 28.6355 83.3077 28.6639 83.2556 28.716C83.2034 28.7658 83.1726 28.8369 83.1726 28.9103C83.1703 28.9838 83.1963 29.0549 83.2461 29.107C83.2958 29.1591 83.3669 29.1899 83.4404 29.1899L88.7718 29.2752C88.9092 29.2539 89.0087 29.1354 89.0087 28.998C89.0087 28.8606 88.9092 28.7421 88.7718 28.7231L88.7765 28.7231Z" fill="white"/>
</g>
</svg>
