<svg width="124" height="81" viewBox="0 0 124 81" fill="none" xmlns="http://www.w3.org/2000/svg">
<path d="M86.2955 0.766357H0.856934V80.4918H86.2955C90.9863 80.4918 95.4071 78.2974 98.2433 74.561L117.116 49.6983C121.185 44.337 121.185 36.9212 117.116 31.5599L98.2433 6.69714C95.4071 2.96079 90.9864 0.766357 86.2955 0.766357Z" fill="#337EBA"/>
<path d="M83.3494 29.6114C82.9632 28.1741 82.0404 26.9739 80.7513 26.2308C78.0905 24.6971 74.6785 25.6139 73.1449 28.2746L69.8759 33.948L64.2039 30.6785C61.5444 29.1445 58.1311 30.0616 56.5975 32.7224C55.8545 34.0114 55.6574 35.5125 56.0433 36.9486C56.4295 38.3858 57.3524 39.586 58.6414 40.3292L64.3134 43.5986L61.044 49.2705C60.301 50.5595 60.1039 52.0606 60.4902 53.498C60.8763 54.9353 61.7992 56.1355 63.0883 56.8786C64.4178 57.645 65.9376 57.7999 67.3151 57.4298C68.6924 57.0597 69.9289 56.1656 70.695 54.8347L73.9641 49.1614L79.636 52.4308C80.9659 53.1985 82.4854 53.3521 83.8628 52.982C85.2401 52.6119 86.4766 51.7178 87.2428 50.3869C87.9858 49.0979 88.1828 47.5968 87.797 46.1607C87.4108 44.7234 86.4879 43.5232 85.1989 42.7801L79.5269 39.5107L82.7963 33.8388C83.5393 32.5498 83.7364 31.0487 83.3501 29.6112L83.3494 29.6114ZM73.3201 48.862L64.8945 44.0053L70.5195 34.2468L78.9455 39.1048L73.3201 48.862ZM58.9944 39.7165C57.8681 39.0684 57.0631 38.0196 56.726 36.7649C56.3889 35.5103 56.5602 34.2005 57.2095 33.074C58.5483 30.7514 61.5283 29.9507 63.8507 31.2895L69.5226 34.5589L64.6659 42.9845L58.9944 39.7165ZM70.0818 54.4794C68.7421 56.8036 65.7631 57.6027 63.4406 56.2639C62.3144 55.6159 61.5094 54.567 61.1726 53.3137C60.8355 52.0591 61.0068 50.7493 61.6562 49.6227L64.5414 44.6172L72.9671 49.4739L70.0818 54.4794ZM84.8448 43.392C85.971 44.0401 86.776 45.0889 87.1131 46.3435C87.4503 47.5982 87.279 48.9079 86.6296 50.0345C85.2899 52.3587 82.3109 53.1578 79.9884 51.819L74.3161 48.5482L79.1728 40.1226L84.8448 43.392ZM79.2976 38.4909L70.872 33.6342L73.7572 28.6287C74.4271 27.4666 75.5068 26.6861 76.7082 26.3633C77.9108 26.0402 79.2363 26.1744 80.3984 26.8442C81.5247 27.4923 82.3297 28.5411 82.6664 29.7944C83.0036 31.0491 82.8323 32.3588 82.1829 33.4854L79.2976 38.4909Z" fill="white" fill-opacity="0.5"/>
<path d="M69.1505 41.1922C68.9814 41.0947 68.7654 41.1528 68.6679 41.3219L67.857 42.7306C67.7595 42.8998 67.8175 43.1158 67.9867 43.2133C68.0713 43.2621 68.1682 43.2717 68.2549 43.2485C68.3415 43.2252 68.4206 43.1682 68.4693 43.0836L69.2802 41.6749C69.3777 41.5058 69.3197 41.2898 69.1505 41.1922Z" fill="white" fill-opacity="0.5"/>
<path d="M70.9009 37.4494L70.09 38.8581C69.9925 39.0272 70.0506 39.2432 70.2197 39.3408C70.3043 39.3895 70.4013 39.3992 70.4879 39.3759C70.5746 39.3526 70.6536 39.2956 70.7024 39.2111L71.5133 37.8024C71.6108 37.6332 71.5527 37.4172 71.3836 37.3197C71.2144 37.2222 70.9984 37.2802 70.9009 37.4494Z" fill="white" fill-opacity="0.5"/>
<path d="M71.3853 42.4817C71.2162 42.3842 71.0002 42.4422 70.9027 42.6114L70.0905 44.0204C69.993 44.1896 70.051 44.4056 70.2201 44.5031C70.3047 44.5519 70.4017 44.5615 70.4883 44.5383C70.575 44.515 70.654 44.458 70.7028 44.3734L71.515 42.9643C71.6125 42.7952 71.5545 42.5792 71.3853 42.4817Z" fill="white" fill-opacity="0.5"/>
<path d="M72.4542 40.6274C72.5388 40.6761 72.6358 40.6858 72.7224 40.6625C72.8091 40.6392 72.8881 40.5823 72.9369 40.4977L73.7491 39.0886C73.8466 38.9195 73.7886 38.7035 73.6194 38.606C73.4502 38.5084 73.2343 38.5665 73.1367 38.7356L72.3245 40.1447C72.227 40.3139 72.2851 40.5298 72.4542 40.6274Z" fill="white" fill-opacity="0.5"/>
<path d="M73.1386 43.8988L72.3277 45.3075C72.2302 45.4767 72.2882 45.6927 72.4574 45.7902C72.542 45.839 72.6389 45.8487 72.7256 45.8254C72.8123 45.8021 72.8913 45.7451 72.94 45.6605L73.7509 44.2518C73.8484 44.0827 73.7904 43.8667 73.6212 43.7691C73.4521 43.6716 73.2361 43.7297 73.1386 43.8988Z" fill="white" fill-opacity="0.5"/>
<path d="M74.689 41.9169C74.7736 41.9657 74.8706 41.9754 74.9572 41.9521C75.0439 41.9288 75.1229 41.8718 75.1717 41.7872L75.9826 40.3785C76.0801 40.2094 76.022 39.9934 75.8529 39.8959C75.6837 39.7983 75.4677 39.8564 75.3702 40.0256L74.5593 41.4343C74.4618 41.6034 74.5199 41.8194 74.689 41.9169Z" fill="white" fill-opacity="0.5"/>
<path d="M31.5993 28.1729C33.1353 28.1729 34.4473 28.4396 35.5353 28.9729C36.6447 29.5062 37.4767 30.2422 38.0313 31.1809C38.6073 32.1196 38.8953 33.1649 38.8953 34.3169C38.8953 35.7676 38.5007 36.9622 37.7113 37.9009C36.922 38.8182 35.8767 39.3836 34.5753 39.5969V39.7569C37.7327 40.6956 39.3113 42.5516 39.3113 45.3249C39.3113 47.2662 38.6607 48.8449 37.3593 50.0609C36.058 51.2556 34.2233 51.8529 31.8553 51.8529C29.338 51.8529 27.3327 51.2342 25.8393 49.9969C24.346 48.7382 23.514 46.8502 23.3433 44.3329H27.7593C27.866 45.4849 28.2393 46.4022 28.8793 47.0849C29.5407 47.7462 30.4687 48.0769 31.6633 48.0769C32.6873 48.0769 33.4873 47.7996 34.0633 47.2449C34.6393 46.6689 34.9273 45.9222 34.9273 45.0049C34.9273 43.9169 34.5113 43.0849 33.6793 42.5089C32.8473 41.9329 31.6207 41.6449 29.9993 41.6449H29.0713V37.9649H29.9993C32.986 38.0076 34.4793 36.9729 34.4793 34.8609C34.4793 33.9436 34.2127 33.2289 33.6793 32.7169C33.146 32.1836 32.4207 31.9169 31.5033 31.9169C30.5433 31.9169 29.754 32.2262 29.1353 32.8449C28.5167 33.4422 28.1647 34.2849 28.0793 35.3729H23.6633C23.7913 33.0689 24.538 31.2982 25.9033 30.0609C27.2687 28.8022 29.1673 28.1729 31.5993 28.1729Z" fill="white"/>
</svg>
