<svg width="124" height="81" viewBox="0 0 124 81" fill="none" xmlns="http://www.w3.org/2000/svg">
<path d="M86.2955 0.766479H0.856934V80.4919H86.2955C90.9863 80.4919 95.4071 78.2975 98.2433 74.5611L117.116 49.6984C121.185 44.3371 121.185 36.9213 117.116 31.56L98.2433 6.69726C95.4071 2.96091 90.9864 0.766479 86.2955 0.766479Z" fill="#337EBA"/>
<path d="M22.3513 33.2612V29.0371H30.4793V51.6292H25.7433V33.2612H22.3513Z" fill="white"/>
<path d="M72.0283 25.8766C71.8444 25.9062 71.6777 25.9982 71.5546 26.1384C66.7449 31.5867 62.1816 38.0664 62.1816 44.2111C62.1816 50.3279 66.6017 55.3913 72.1529 55.3913C77.7041 55.3913 82.1241 50.3279 82.1241 44.2111C82.1241 38.0664 77.5609 31.5867 72.7512 26.1384C72.5704 25.9327 72.2978 25.8346 72.0283 25.8766ZM72.1529 27.9332C76.6164 33.123 80.5287 39.1197 80.5287 44.2111C80.5287 49.566 76.7288 53.7958 72.1529 53.7958C67.577 53.7958 63.777 49.566 63.777 44.2111C63.777 39.1193 67.6892 33.1226 72.1529 27.9332ZM66.2822 43.1019C65.8693 43.1065 65.5297 43.4259 65.497 43.8373C65.2742 46.3192 66.4473 49.069 68.3138 50.4307C68.4821 50.5802 68.7049 50.6519 68.9293 50.627C69.1536 50.6036 69.3562 50.4852 69.4886 50.3045C69.621 50.1222 69.6709 49.8932 69.6241 49.6719C69.5789 49.4522 69.4418 49.2606 69.2486 49.1469C68.0272 48.2557 66.9303 45.7987 67.0924 43.9866C67.1173 43.7575 67.0425 43.5301 66.8883 43.3602C66.7325 43.1904 66.5112 43.0972 66.2822 43.1019Z" fill="white" fill-opacity="0.5"/>
</svg>
