<svg width="1512" height="241" viewBox="0 0 1512 241" fill="none" xmlns="http://www.w3.org/2000/svg">
<g opacity="0.4">
<path d="M24.8697 187.829L-24.4309 195.604V240.506H1518.9V138.328L1436.66 132.057L1363.83 108.739L1326.88 105.388C1324.79 106.904 1318.62 110.079 1310.7 110.653C1302.78 111.228 1266.35 101.319 1249.13 96.292H1228.85L1146.99 65.8936L1136.85 57.9948L1123.08 53.6864C1118.9 56.08 1109.32 61.4416 1104.49 63.7394C1099.66 66.0372 1082.04 76.6647 1073.83 81.6912C1070.53 81.6114 1063.44 81.787 1061.51 83.1274C1059.58 84.4678 1039.94 93.1006 1030.36 97.2495L1014.42 104.909L1004.52 110.893C1002.19 111.292 996.122 111.85 990.52 110.893C984.917 109.935 974.019 101.398 969.271 97.2495L952.851 95.574L932.326 80.0157H921.702L899.97 64.9362L895.141 55.6012L880.411 46.9844L873.409 37.6494L858.921 29.0325L840.086 14.1924L822.218 10.1233L810.145 0.0703125H796.14L766.439 30.4688L747.364 40.2824L715.973 61.3459H697.863L662.126 39.0855L654.641 44.83C644.177 54.0852 622.284 73.3615 618.421 76.4254C614.557 79.4892 602.967 85.0422 597.655 87.4357L580.028 97.4887L572.059 98.974L561.194 109.935C555.237 115.281 542.118 125.446 537.288 123.339C532.459 121.233 511.291 109.058 501.31 103.233L488.029 85.9995C485.293 83.8454 479.288 78.9147 477.163 76.4254C474.507 73.3137 459.054 66.851 460.744 70.6807C462.096 73.7444 441.131 90.8195 430.48 98.974H413.673L391.263 117.856C364.372 133.405 308.573 165.837 300.505 171.169C292.438 176.5 245.602 151.176 223.193 137.848L194.061 132.295L163.808 137.848L142.519 145.623L127.953 157.841H115.628L89.857 171.169L24.8697 187.829Z" fill="#ECE5DC" fill-opacity="0.8"/>
<path d="M1.03781 71.48H-18.1654V240.506H1512.64V58.4811L1452.69 56.6623L1421.02 43.6274H1395.19L1387.81 49.3872L1380.13 52.1153L1338.31 86.0665L1313.41 106.68L1276.51 120.321L1256.22 123.049C1251.2 125.373 1237.1 128.99 1220.87 124.868C1200.57 119.714 1185.82 120.321 1179.05 120.321C1172.29 120.321 1157.84 113.046 1153.53 113.046C1149.23 113.046 1146.46 110.924 1137.85 110.924C1129.24 110.924 1116.64 122.14 1108.95 126.687C1101.27 131.234 1093.58 145.784 1087.43 147.603C1082.51 149.058 1052.38 148.209 1037.93 147.603L1015.49 139.115L987.508 133.659H969.675L945.694 122.14H898.654C895.374 120.018 887.954 115.349 884.511 113.652C881.067 111.954 863.194 110.519 854.688 110.014L838.085 96.6761H829.169L803.958 83.0351H796.886L754.765 67.272L705.265 96.6761H662.529L656.072 104.255L637.01 117.896L623.79 119.714L618.255 124.261L568.14 145.178H552.46L540.777 150.634L516.928 156.506H501.754L477.514 137.27L466.478 135.91C453.865 128.008 428.009 111.933 425.486 110.845C422.333 109.485 416.618 106.181 406.567 108.902C396.517 111.622 398.882 108.319 388.043 108.902C379.371 109.368 340.285 127.49 321.826 136.493C316.637 136.234 305.824 135.871 304.09 136.493C302.355 137.115 299.557 139.731 298.374 140.962L261.719 139.019L247.333 132.801H224.275L207.524 124.252H179.737L153.723 109.485L91.4479 104.821L81.5943 94.3289L76.8645 92.7744L69.735 84.6494L56.8129 75.9322H37.4299L1.03781 71.48Z" fill="#F9F2EA"/>
</g>
</svg>
