<svg width="390" height="51" viewBox="0 0 390 51" fill="none" xmlns="http://www.w3.org/2000/svg">
<g opacity="0.4">
<path d="M-99.3407 72.6821L-118.193 75.6551V92.8257H471.98V53.7526L440.531 51.3546L412.678 42.4377L398.55 41.1563C397.75 41.736 395.392 42.9503 392.364 43.17C389.335 43.3896 375.404 39.6003 368.818 37.6781H361.061L329.759 26.0537L325.881 23.0332L320.618 21.3857C319.017 22.301 315.355 24.3513 313.508 25.23C311.661 26.1087 304.921 30.1726 301.781 32.0948C300.519 32.0642 297.811 32.1314 297.072 32.6439C296.333 33.1565 288.823 36.4577 285.161 38.0442L279.066 40.9732L275.281 43.2615C274.388 43.414 272.067 43.6276 269.925 43.2615C267.783 42.8954 263.615 39.6308 261.799 38.0442L255.52 37.4035L247.672 31.454H243.609L235.299 25.6876L233.452 22.1179L227.819 18.8228L225.142 15.2531L219.601 11.958L212.399 6.28311L205.566 4.72709L200.949 0.882812H195.594L184.236 12.5072L176.942 16.26L164.938 24.3147H158.013L144.347 15.8023L141.485 17.999C137.483 21.5382 129.111 28.9095 127.634 30.0811C126.157 31.2527 121.724 33.3762 119.693 34.2915L112.952 38.1357L109.905 38.7037L105.75 42.8953C103.473 44.9395 98.4556 48.8265 96.6088 48.021C94.7621 47.2156 86.6673 42.5597 82.8507 40.3325L77.7721 33.7423C76.7257 32.9185 74.4296 31.033 73.617 30.0811C72.6013 28.8912 66.6917 26.4198 67.3381 27.8843C67.8552 29.0559 59.8382 35.5854 55.7651 38.7037H49.3381L40.7687 45.9241C30.4854 51.8703 9.14767 64.2724 6.0627 66.3111C2.97771 68.3498 -14.9323 58.666 -23.5017 53.5692L-34.6419 51.4456L-46.2105 53.5692L-54.3514 56.5423L-59.9215 61.2144H-64.6347L-74.4895 66.3111L-99.3407 72.6821Z" fill="#ECE5DC" fill-opacity="0.8"/>
<path d="M-108.454 28.1899H-115.797V92.8256H469.584V23.2191L446.658 22.5236L434.548 17.5391H424.672L421.851 19.7416L418.911 20.7848L402.922 33.7678L393.398 41.6503L379.29 46.8667L371.53 47.91C369.61 48.7987 364.217 50.182 358.01 48.6055C350.25 46.6348 344.607 46.8667 342.02 46.8667C339.433 46.8667 333.908 44.0846 332.262 44.0846C330.616 44.0846 329.557 43.2732 326.266 43.2732C322.974 43.2732 318.153 47.5622 315.214 49.301C312.275 51.0398 309.335 56.6039 306.984 57.2994C305.103 57.8558 293.581 57.5313 288.055 57.2994L279.472 54.0537L268.773 51.9671H261.954L252.784 47.5622H234.795C233.541 46.7508 230.704 44.9656 229.387 44.3165C228.07 43.6673 221.236 43.1186 217.983 42.9254L211.634 37.825H208.224L198.584 32.6086H195.879L179.772 26.5808L160.843 37.825H144.501L142.032 40.7229L134.743 45.9393L129.687 46.6348L127.571 48.3736L108.407 56.372H102.411L97.943 58.4586L88.8232 60.7041H83.0204L73.751 53.3482L69.5308 52.8281C64.7077 49.8064 54.8203 43.6591 53.8557 43.2431C52.6499 42.7229 50.4645 41.4598 46.6211 42.5C42.7776 43.5403 43.682 42.2771 39.5371 42.5C36.2213 42.6784 21.2747 49.6083 14.2159 53.051C12.2314 52.9519 8.09654 52.8132 7.43336 53.051C6.77018 53.2887 5.70006 54.2893 5.2479 54.7599L-8.76923 54.0169L-14.2706 51.6392H-23.0878L-29.4935 48.3699H-40.1194L-50.067 42.7229L-73.8811 40.9397L-77.6491 36.9274L-79.4578 36.3329L-82.1842 33.2259L-87.1255 29.8925H-94.5376L-108.454 28.1899Z" fill="#F9F2EA"/>
</g>
</svg>
